<svg width="54" height="41" viewBox="0 0 54 41" fill="none" xmlns="http://www.w3.org/2000/svg">
<g clip-path="url(#clip0_5_337)">
<path d="M19.9718 18.7251C20.8072 16.9892 21.6451 15.2543 22.477 13.5167C23.3315 11.7305 24.1573 9.93037 25.0413 8.15979C25.4946 7.25062 25.6821 6.32147 25.6283 5.31592C25.4676 2.34179 23.0015 0.198688 20.0604 0.570345C17.5899 0.882953 15.8445 2.29664 14.7044 4.45016C13.9619 5.85169 13.3254 7.3088 12.6481 8.74419C12.0211 10.0736 11.3412 11.3788 10.7811 12.7395C10.7134 12.8663 10.6405 12.9913 10.5788 13.1207C8.95497 16.516 7.3242 19.9078 5.71339 23.3083C4.16598 26.5733 2.64201 29.8496 1.10155 33.1181C0.683001 34.0064 0.542327 34.933 0.623953 35.9047C0.857541 38.666 3.21774 40.6954 5.97043 40.4488C8.57463 40.2152 10.3747 38.7485 11.4697 36.4778C13.1769 32.9375 14.8502 29.379 16.5557 25.8378C17.6967 23.4681 18.8334 21.0966 19.9718 18.726V18.7251Z" fill="#FB923C" style="fill:#FB923C;fill:color(display-p3 0.9843 0.5725 0.2353);fill-opacity:1;"/>
<path d="M52.708 32.5849C51.6851 30.5009 50.6969 28.3986 49.6939 26.305C49.3032 25.4896 48.9098 24.6751 48.5182 23.8605C47.8652 22.4807 47.2165 21.0983 46.5592 19.7202C44.6939 15.8135 42.8244 11.9094 40.9565 8.00435C40.4103 6.86159 39.8511 5.72404 39.3214 4.57347C38.6311 3.07469 37.5804 1.91283 36.1207 1.1452C34.0132 0.0363057 31.6026 0.381044 29.938 1.99966C28.3662 3.5271 27.9789 5.85517 28.9515 7.87844C31.5132 13.211 34.0679 18.5462 36.6312 23.877C37.464 25.6086 38.3141 27.3314 39.1564 29.0585C39.166 29.1002 39.1677 29.1462 39.186 29.1844C40.3886 31.7313 41.56 34.2939 42.8079 36.8182C43.5859 38.3925 44.8407 39.5153 46.5062 40.1214C49.3084 41.1417 52.2269 39.8183 53.1109 37.1282C53.625 35.5634 53.4314 34.0568 52.7089 32.5849H52.708Z" fill="#FB923C" style="fill:#FB923C;fill:color(display-p3 0.9843 0.5725 0.2353);fill-opacity:1;"/>
<path d="M27.1924 12.2072C27.1472 12.1152 27.1403 11.9719 26.9544 11.9745C26.179 13.5618 25.3914 15.1535 24.622 16.753C23.7649 18.5358 22.9244 20.3263 22.076 22.1134C22.0465 22.1629 22.0117 22.2098 21.9874 22.2619C20.2698 25.8882 18.5479 29.5118 16.8381 33.1424C16.4577 33.9509 16.2841 34.8114 16.3058 35.711C16.3761 38.6435 18.903 40.8369 21.7981 40.4575C24.042 40.164 25.6145 38.8831 26.7781 37.0179C27.0994 36.503 27.3096 35.9333 27.5666 35.3871C28.1753 34.0924 28.7736 32.7933 29.3754 31.496C30.5963 29.0837 31.6175 26.5776 32.8106 24.1523C32.9009 23.9682 32.8454 23.8276 32.7672 23.666C30.9081 19.847 29.0524 16.0262 27.1932 12.2081L27.1924 12.2072Z" fill="#FB923C" style="fill:#FB923C;fill:color(display-p3 0.9843 0.5725 0.2353);fill-opacity:1;"/>
</g>
<defs>
<clipPath id="clip0_5_337">
<rect width="52.7987" height="40" fill="white" style="fill:white;fill-opacity:1;" transform="translate(0.600586 0.5)"/>
</clipPath>
</defs>
</svg>
